<svg version="1.1" xmlns="http://www.w3.org/2000/svg" xmlns:xlink="http://www.w3.org/1999/xlink" id="logo-animated" class="show-after-animation" x="0px" y="0px" viewBox="0 0 595.3 165.2" style="enable-background:new 0 0 595.3 165.2;" xml:space="preserve">
<style type="text/css">
	.st0{fill:#FFFFFF;}
	.st1{fill:#E30613;}
</style>
<path class="st0" d="M36.4,63.9H23.9c-1.4,0-2.5,1-2.5,2.4v33.3c0,1.5,1.2,2.3,2.4,2.3c1.2,0,2.4-0.8,2.4-2.3v-9h10
	c11.2,0,15.2-6.7,15.2-13c0-3.6-1.3-6.9-3.7-9.4C45.1,65.3,41.2,63.9,36.4,63.9 M46.7,77.5c0.1,2.2-0.7,4.2-2.2,5.7
	C42.7,85,39.8,86,36.3,86h-10V68.3h10.2C41.4,68.3,46.6,71.5,46.7,77.5"/>
<path class="st0" d="M79.4,96.8H64.2V65.9c0-1.6-1.2-2.4-2.5-2.4c-1.2,0-2.5,0.8-2.5,2.4v33c0,1.6,0.9,2.5,2.5,2.5h17.6
	c1.7,0,2.6-1.1,2.6-2.3C82,98,81.1,96.8,79.4,96.8"/>
<path class="st0" d="M109.2,64.8c-0.4-0.8-1.2-1.3-2.2-1.3c-0.8,0-1.8,0.3-2.2,1.3L87.3,98.6c-0.6,1.3,0.2,2.4,1.2,2.9
	c0.4,0.2,0.8,0.3,1.2,0.3c0.8,0,1.6-0.4,2-1.2l4.6-8.9h21.3l4.5,8.9c0.4,0.8,1.2,1.3,2.1,1.3c1,0,2-0.4,2.5-1.2
	c0.4-0.6,0.3-1.4-0.1-2.1L109.2,64.8z M115.5,87.3H98.4l8.6-17.1L115.5,87.3z"/>
<path class="st0" d="M164.8,63.5c-1.3,0-2.6,0.8-2.6,2.2l0,27.2l-21-28c-0.8-1.2-2.2-1.8-3.5-1.4c-1.2,0.4-1.8,1.4-1.8,2.8v32.9
	c0,1.6,1.3,2.5,2.5,2.5c1.3,0,2.6-0.9,2.6-2.5l0-20.3v-6.3l20.7,27.6c1,1.2,2.3,1.7,3.8,1.3c1.3-0.4,2.1-1.4,2.1-2.7l0-33.2
	C167.5,64.2,166,63.5,164.8,63.5"/>
<path class="st0" d="M207,96.8h-22.5V85H202c0.7,0,1.2-0.2,1.6-0.7c0.3-0.4,0.5-0.9,0.5-1.5c0-1.1-0.7-2.2-2.1-2.2h-17.5V68.3H207
	c1.5,0,2.2-1.1,2.2-2.2c0-0.6-0.2-1.1-0.5-1.5c-0.4-0.4-1-0.7-1.6-0.7h-24.4c-1.7,0-3,1.2-3,2.8v31.7c0,1.6,1.3,2.9,3,2.9H207
	c0.7,0,1.3-0.2,1.7-0.7c0.4-0.4,0.6-0.9,0.6-1.5C209.3,98.1,208.5,96.8,207,96.8"/>
<path class="st0" d="M247.9,63.9H218c-1.6,0-2.4,1.2-2.4,2.3c0,1.2,0.8,2.3,2.4,2.3h12.5v30.8c0,1.6,1.3,2.5,2.4,2.5
	c1.2,0,2.5-0.7,2.5-2.2c0-5.2,0-10.4,0-15.7c0-5.1,0-10.3,0-15.3h12.5c1.6,0,2.5-1.2,2.5-2.3C250.4,65,249.6,63.9,247.9,63.9"/>
<path class="st0" d="M349.2,63.9h-12.5c-1.4,0-2.5,1-2.5,2.4v33.3c0,1.5,1.2,2.3,2.4,2.3c1.2,0,2.4-0.8,2.4-2.3v-9h10
	c11.2,0,15.2-6.7,15.2-13c0-3.6-1.3-6.9-3.7-9.4C357.9,65.3,353.9,63.9,349.2,63.9 M359.5,77.5c0.1,2.2-0.7,4.2-2.2,5.7
	c-1.8,1.9-4.7,2.9-8.2,2.9h-10V68.3h10.2C354.2,68.3,359.4,71.5,359.5,77.5"/>
<path class="st0" d="M388.1,64.8c-0.4-0.8-1.2-1.3-2.2-1.3c-0.8,0-1.8,0.3-2.2,1.3l-17.5,33.8c-0.6,1.3,0.2,2.4,1.2,2.9
	c0.4,0.2,0.8,0.3,1.2,0.3c0.8,0,1.6-0.4,2-1.2l4.6-8.9h21.3l4.4,8.8c0.4,0.8,1.2,1.3,2.1,1.3c1,0,2-0.4,2.5-1.2
	c0.4-0.6,0.3-1.4-0.1-2.1L388.1,64.8z M394.4,87.3h-17.1l8.6-17.1L394.4,87.3z"/>
<path class="st0" d="M445.3,76.6c0-7.8-6.1-12.8-15.4-12.8h-13.7c-1.5,0-2.5,1-2.5,2.4v33.3c0,1.5,1.2,2.3,2.4,2.3
	c1.2,0,2.5-0.8,2.5-2.3v-11h10.7l11.6,12.5c0.5,0.5,1.2,0.8,1.8,0.8c0.2,0,0.4,0,0.6-0.1c0.8-0.2,1.5-0.9,1.7-1.6
	c0.2-0.8-0.1-1.6-0.8-2.4l-8.9-9.7C441.8,86.8,445.3,82.8,445.3,76.6 M440.3,76.6c0,1.9-0.6,3.5-1.8,4.7c-1.8,1.8-4.7,2.8-8.6,2.8
	h-11.3V68.4h11.3C436.1,68.4,440.2,71.7,440.3,76.6"/>
<path class="st0" d="M481.3,63.9h-21.8c-1.6,0-2.9,1.3-2.9,2.8v32.6c0,1.6,1.2,2.5,2.4,2.5c1.2,0,2.4-0.9,2.4-2.5V86.3h18.7
	c0.6,0,1.2-0.2,1.6-0.7c0.3-0.4,0.5-0.9,0.5-1.4c0-1.1-0.7-2.2-2.1-2.2h-18.7V68.2h19.8c1.4,0,2.2-1.1,2.2-2.2
	C483.5,65,482.7,63.9,481.3,63.9"/>
<path class="st0" d="M524.5,63.5c-1.3,0-2.5,0.9-2.5,2.5v18.7c0,8.4-6.4,12.2-12.4,12.2c-6,0-12.4-3.8-12.4-12.2V65.8
	c0-1.5-1.3-2.3-2.5-2.3c-1.2,0-2.5,0.8-2.5,2.2v19c0,11.2,8.7,17,17.4,17c8.6,0,17.4-5.9,17.4-17V66C527,64.4,525.8,63.5,524.5,63.5
	"/>
<path class="st0" d="M572.8,63.6c-1.1-0.3-2.2,0.2-2.9,1.3l-13.7,21.5L542.4,65c-0.6-1.1-1.7-1.6-2.8-1.4c-1.1,0.3-1.8,1.3-1.8,2.6
	v33.2c0,1.6,1.2,2.4,2.5,2.4c1.2,0,2.5-0.8,2.5-2.4v-25l11.1,17.4c0.5,0.9,1.3,1.4,2.2,1.4c0,0,0,0,0,0c1,0,1.8-0.5,2.3-1.4
	l11.1-17.4v25c0,1.6,1.2,2.4,2.5,2.4c1.2,0,2.5-0.8,2.5-2.4V66.2C574.5,64.9,573.9,63.9,572.8,63.6"/>
<path class="st1" d="M294.7,57.4c0.6-0.2,1.3-0.3,2-0.5c0.3-0.1,0.6-0.1,0.9-0.2c0.1,0,0.3-0.2,0.3-0.3c0-0.2-0.1-0.3-0.3-0.3
	c-9.9-2.5-18.4-0.3-25.3,6.4c-7.8,7.6-10.2,17.1-6.9,27.6c3,9.6,11.5,16,18.4,17.3c0.1,0,0.3,0,0.3-0.1c0.1-0.1,0.1-0.3,0-0.4
	c-0.4-0.6-0.7-1.1-1.1-1.7c-0.8-1.3-1.7-2.6-2.4-4c-6.3-11.8-4.5-27.1,4.5-37.1C287.2,61.6,290.4,58.6,294.7,57.4"/>
<path class="st1" d="M281.2,77.1c-0.2,0.9-0.3,1.4-0.4,2.1c-0.3,1.4-0.5,2.7-0.6,4.2c-0.6,8.5,1.3,15.7,7,22.3
	c1.3,1.5,3.6,2.4,5.3,2.6c0.9,0.1,2.1,0,2.9-0.2c11.4-2.1,20.2-11.2,21.8-22.7c0.2-1.2,0.2-2.5,0.2-3.7l0-0.1c0-0.5,0-1.6-0.1-2.2
	c0-0.1-0.2-0.2-0.3-0.3c-0.1,0-0.3,0.1-0.3,0.2c-3.6,8.8-9.7,13-18.3,12.4c-8.5-0.6-13.7-5.5-16.5-14.8c0-0.1-0.2-0.2-0.3-0.2h0
	C281.4,76.8,281.3,77,281.2,77.1"/>
<path class="st1" d="M299.9,88.8c0.1,0,0.2,0,0.4,0c6.8,0,13.2-5.9,13.9-12.9c0.7-7.6-4.5-14.6-11.8-15.9
	c-8.8-1.5-14.7,4.6-16.2,9.4c0,0.1,0,0.3,0.1,0.4c0.1,0.1,0.3,0.1,0.4,0c2.5-2.3,5.2-3.5,8.1-3.5c0.5,0,0.9,0,1.4,0.1
	c3.6,0.4,6.5,2.2,8.5,5.3c1.7,2.6,2.2,5.9,1.3,8.9c-0.8,3.2-3.1,5.9-6.2,7.5c-0.1,0.1-0.2,0.2-0.2,0.4
	C299.7,88.7,299.8,88.8,299.9,88.8"/>
<path class="st1" d="M294.6,75.9c2.9-1,5.4,0,7.9,3.1c0.1,0.1,0.2,0.1,0.3,0.1c0.1,0,0.2-0.1,0.3-0.2c0.9-3.4-1.5-7.6-5.2-9
	c-0.9-0.4-1.9-0.5-2.9-0.5c-3.1,0-6.1,1.8-7.5,4.7c-1.7,3.6-0.6,8.2,2.4,10c0.1,0.1,0.2,0.1,0.3,0c0.1-0.1,0.2-0.2,0.2-0.3
	C290.4,79.1,291.5,76.9,294.6,75.9"/>
<path class="st1" d="M300,82c0-0.9-0.3-1.7-1-2.3c-0.6-0.6-1.4-1-2.3-1c-1.8,0-3.3,1.5-3.3,3.3c0,0.9,0.3,1.7,0.9,2.3
	c0.6,0.6,1.5,1,2.4,1C298.5,85.3,300,83.8,300,82"/>
</svg>
